# xmcd CD database file generated by Grip 2.94
# 
# Track frame offsets:
#       150
#       22647
#       34744
#       52262
#       80857
#       114785
#       140559
#       162583
#       178853
#       202803
#       223288
#       236490
#       256322
#       268170
# 
# Disc length: 3898 seconds
# 
# Revision: 3
# Processed by: cddbd v1.4PL0 Copyright (c) Steve Scherf et al.
# Submitted via: Grip 2.94
# 
DISCID=cb0f380e
DTITLE=Robin Trower - The Best of Robin Trower
DYEAR=1900
DGENRE=
TTITLE0=Day Of The Eagle
TTITLE1=Man Of The World
TTITLE2=Twice Removed From Yesterday
TTITLE3=Daydream
TTITLE4=Too Rolling Stoned
TTITLE5=Little Misty Days
TTITLE6=Little Bit Of Sympathy (Live)
TTITLE7=Shame The Devil
TTITLE8=I Can't Wait Much Longer
TTITLE9=In This Place
TTITLE10=Sweet Wine Of Love
TTITLE11=Won't Let You Down
TTITLE12=Farther Up The Road
TTITLE13=Bridge Of Sighs
EXTD=
EXTT0=
EXTT1=
EXTT2=
EXTT3=
EXTT4=
EXTT5=
EXTT6=
EXTT7=
EXTT8=
EXTT9=
EXTT10=
EXTT11=
EXTT12=
EXTT13=
PLAYORDER=
